<svg xmlns="http://www.w3.org/2000/svg" version="1.1" xmlns:xlink="http://www.w3.org/1999/xlink" xmlns:svgjs="http://svgjs.com/svgjs" width="390" height="800" preserveAspectRatio="none" viewBox="0 0 390 800"><g mask="url(&quot;#SvgjsMask1040&quot;)" fill="none"><rect width="390" height="800" x="0" y="0" fill="url(#SvgjsLinearGradient1041)"></rect><path d="M390 0L351.13 0L390 331.2z" fill="rgba(255, 255, 255, .1)"></path><path d="M351.13 0L390 331.2L390 389.01L333.74 0z" fill="rgba(255, 255, 255, .075)"></path><path d="M333.74 0L390 389.01L390 480.39L220.22000000000003 0z" fill="rgba(255, 255, 255, .05)"></path><path d="M220.22 0L390 480.39L390 670.46L166.51999999999998 0z" fill="rgba(255, 255, 255, .025)"></path><path d="M0 800L142.72 800L0 584.58z" fill="rgba(0, 0, 0, .1)"></path><path d="M0 584.58L142.72 800L258.40999999999997 800L0 532.2800000000001z" fill="rgba(0, 0, 0, .075)"></path><path d="M0 532.28L258.40999999999997 800L295.71999999999997 800L0 372.01z" fill="rgba(0, 0, 0, .05)"></path><path d="M0 372.01L295.71999999999997 800L361.4 800L0 306.23z" fill="rgba(0, 0, 0, .025)"></path></g><defs><mask id="SvgjsMask1040"><rect width="390" height="800" fill="#ffffff"></rect></mask><linearGradient x1="50%" y1="100%" x2="50%" y2="0%" gradientUnits="userSpaceOnUse" id="SvgjsLinearGradient1041"><stop stop-color="rgba(14, 42, 71, 1)" offset="0"></stop><stop stop-color="rgba(14, 42, 71, 1)" offset="1"></stop></linearGradient></defs></svg>