<svg xmlns="http://www.w3.org/2000/svg" version="1.1" xmlns:xlink="http://www.w3.org/1999/xlink" xmlns:svgjs="http://svgjs.com/svgjs" width="1512" height="982" preserveAspectRatio="none" viewBox="0 0 1512 982"><g mask="url(&quot;#SvgjsMask1486&quot;)" fill="none"><rect width="1512" height="982" x="0" y="0" fill="url(#SvgjsLinearGradient1487)"></rect><path d="M1512 0L1308.43 0L1512 131.88z" fill="rgba(255, 255, 255, .1)"></path><path d="M1308.43 0L1512 131.88L1512 410.79L1207.68 0z" fill="rgba(255, 255, 255, .075)"></path><path d="M1207.68 0L1512 410.79L1512 736.51L680.07 0z" fill="rgba(255, 255, 255, .05)"></path><path d="M680.0699999999999 0L1512 736.51L1512 901.27L500.29999999999995 0z" fill="rgba(255, 255, 255, .025)"></path><path d="M0 982L406.69 982L0 858.48z" fill="rgba(0, 0, 0, .1)"></path><path d="M0 858.48L406.69 982L844.3 982L0 750.78z" fill="rgba(0, 0, 0, .075)"></path><path d="M0 750.78L844.3 982L888.9699999999999 982L0 632.23z" fill="rgba(0, 0, 0, .05)"></path><path d="M0 632.23L888.9699999999999 982L1063.02 982L0 372.81z" fill="rgba(0, 0, 0, .025)"></path></g><defs><mask id="SvgjsMask1486"><rect width="1512" height="982" fill="#ffffff"></rect></mask><linearGradient x1="50%" y1="100%" x2="50%" y2="0%" gradientUnits="userSpaceOnUse" id="SvgjsLinearGradient1487"><stop stop-color="rgba(14, 42, 71, 1)" offset="0"></stop><stop stop-color="rgba(21, 82, 89, 1)" offset="1"></stop></linearGradient></defs></svg>